<svg width="19" height="21" viewBox="0 0 19 21" fill="none" xmlns="http://www.w3.org/2000/svg">
<path d="M18.3066 7.24359H15.8778C15.5656 7.24359 15.2921 7.03442 15.206 6.72938L13.5093 0.667803C13.4038 0.29304 13.0184 0.0751516 12.648 0.181916L12.3358 0.271249C11.9655 0.378013 11.7501 0.768029 11.8556 1.14279L13.3112 6.3459C13.4382 6.79693 13.1023 7.24359 12.6394 7.24359H6.65781C6.19488 7.24359 5.86113 6.79693 5.98602 6.3459L7.43727 1.15586C7.54278 0.781101 7.32746 0.391086 6.95711 0.284322L6.6449 0.194988C6.27455 0.0882242 5.88912 0.306112 5.78362 0.680876L4.0912 6.72938C4.00723 7.03224 3.73162 7.24359 3.4194 7.24359H0.69776C0.312337 7.24359 0.00012207 7.55952 0.00012207 7.94954L0.00012207 8.96053C0.00012207 9.35054 0.312337 9.66648 0.69776 9.66648H18.3023C18.6877 9.66648 19 9.35054 19 8.96053V7.94954C19.0043 7.55952 18.692 7.24359 18.3066 7.24359Z" fill="white"/>
<path d="M17.2365 10.6033H1.78721C1.35227 10.6033 1.02282 11.0042 1.10034 11.4378L2.66142 20.0334C2.72171 20.3689 3.01024 20.6108 3.3483 20.6108H15.8219C16.1621 20.6108 16.4549 20.3602 16.5109 20.0203L17.9256 11.4247C17.9966 10.9933 17.6693 10.6033 17.2365 10.6033ZM4.04809 18.3491L3.26647 13.0806C3.20403 12.6536 3.53132 12.2679 3.95766 12.2701H4.32586C4.68975 12.2701 4.9912 12.5533 5.01919 12.9194L5.43261 18.1879C5.46491 18.5975 5.14408 18.9505 4.73712 18.9505C4.39261 18.9505 4.09977 18.6955 4.04809 18.3491ZM7.22193 18.9505H6.92264C6.54798 18.9505 6.24007 18.6498 6.225 18.2707L6.02475 13C6.00967 12.5991 6.3262 12.2679 6.72239 12.2679H7.22193C7.60736 12.2679 7.91958 12.5839 7.91958 12.9739V18.2445C7.91958 18.6345 7.60521 18.9505 7.22193 18.9505ZM9.70459 18.9505H9.43114C9.04571 18.9505 8.73349 18.6345 8.73349 18.2445V12.9739C8.73349 12.5839 9.04571 12.2679 9.43114 12.2679H9.70459C10.09 12.2679 10.4022 12.5839 10.4022 12.9739V18.2445C10.4022 18.6345 10.09 18.9505 9.70459 18.9505ZM12.2066 18.9505H11.9073C11.5219 18.9505 11.2097 18.6345 11.2097 18.2445V12.9739C11.2097 12.5839 11.5219 12.2679 11.9073 12.2679H12.4069C12.8031 12.2679 13.1196 12.6013 13.1045 13L12.9043 18.2707C12.8892 18.6498 12.5813 18.9505 12.2066 18.9505ZM14.39 18.9505C13.983 18.9505 13.6622 18.5997 13.6945 18.1879L14.1079 12.9194C14.1359 12.5533 14.4374 12.2701 14.8013 12.2701H15.1695C15.5958 12.2679 15.9252 12.6536 15.8606 13.0806L15.079 18.3491C15.0295 18.6955 14.7345 18.9505 14.39 18.9505Z" fill="white"/>
</svg>
