<svg xmlns="http://www.w3.org/2000/svg" viewBox="0 0 215.45 132.77"><defs><style>.cls-1{fill:#fbfbfb;}.cls-2{fill:#d22730;}.cls-3{fill:#fff;}</style></defs><g id="Layer_2" data-name="Layer 2"><g id="LOGO1_REDUC"><g id="_100" data-name="100"><path class="cls-1" d="M209.15,75.91h0a7.76,7.76,0,0,0-.86-2.49,6,6,0,0,0-1.76-1.89,5.31,5.31,0,0,0-.53-.32L207.1,65l-1.93-.66a10.6,10.6,0,0,0-2.35-.49,9.81,9.81,0,0,0-2.24,0c-.33,0-.67.08-1,.14a9.77,9.77,0,0,0-2.84.92,7.39,7.39,0,0,0-2.13,1.58l-.21-1.25-5.91,1,1.29-5.43,11.12-47L70.65,34.88,71,33l.87-4.48L67.6,27a59.17,59.17,0,0,0-12.18-2.7,47.9,47.9,0,0,0-6-.36,68.93,68.93,0,0,0-10.84.93A50.62,50.62,0,0,0,24.2,29.21a34.8,34.8,0,0,0-10.73,8A28.62,28.62,0,0,0,7.3,48.4a30.8,30.8,0,0,0-.66,13.38,27.71,27.71,0,0,0,4.68,12.07,28.78,28.78,0,0,0,8.07,7.58,37,37,0,0,0,9.75,4.25c3.14.87,6.32,1.6,9.45,2.17h.09c7.79,1.28,11.46,2.54,13.17,3.37,1.94,1,2.1,1.93,2.18,2.46a5.12,5.12,0,0,1,0,1.79,1.45,1.45,0,0,1-.38.5,7.1,7.1,0,0,1-2.33,1.41A23.22,23.22,0,0,1,46,98.8a55.8,55.8,0,0,1-8.59.76,31.22,31.22,0,0,1-4-.24,44.07,44.07,0,0,1-9-2l-5.87-2.1-1.13,6.12-3,16.28L13.54,122l4.15,1.56a52.39,52.39,0,0,0,5.16,1.59A50.07,50.07,0,0,0,30,126.39a69.92,69.92,0,0,0,8,.42h1.06a77.24,77.24,0,0,0,11.2-1c12.49-2,21.73-6.15,27.45-12.35,6.06-6.55,8.34-14.78,6.79-24.46-.23-1.46-.52-2.86-.86-4.19l47.82-7.6,6.44-1a3,3,0,0,0-.3.32,6.4,6.4,0,0,0-1.32,2.48,6.59,6.59,0,0,0-.13,2.83c0,.19.07.36.1.5a6.11,6.11,0,0,0,1,2.24,7.29,7.29,0,0,0,1.2,1.22l-.3,1.77-.9,5.21,1.84.68c.25.09.55.18.89.27l.15,0a12.86,12.86,0,0,0,1.44.24,12.17,12.17,0,0,0,1.27.06h.43a14.85,14.85,0,0,0,2.11-.22,9.11,9.11,0,0,0,5.46-2.62L151,91l.25,1.46,8-1.35-.69-4.19.83-.14L160,91l7.95-1.38-.57-3.28a8.4,8.4,0,0,0,1,.84,8.87,8.87,0,0,0,3.46,1.42,10.5,10.5,0,0,0,3.75,0,11,11,0,0,0,3.53-1.25,8.64,8.64,0,0,0,3.46-3.61l.56,3.24,15-2.57-.05-.28.31,0a12.51,12.51,0,0,0,1.28.06h.44a14.87,14.87,0,0,0,2.1-.22,9.08,9.08,0,0,0,5.46-2.62A6.31,6.31,0,0,0,209.15,75.91ZM73.82,109.83q-7.38,8-24.4,10.72a70.63,70.63,0,0,1-10.42,1H38a63.54,63.54,0,0,1-7.4-.39A46.8,46.8,0,0,1,24.18,120a47.94,47.94,0,0,1-4.63-1.43l3-16.28a48.7,48.7,0,0,0,10.11,2.28,36.29,36.29,0,0,0,4.69.28,60,60,0,0,0,9.42-.82,28,28,0,0,0,6.66-1.77,12.7,12.7,0,0,0,4-2.54,6.38,6.38,0,0,0,1.79-3.16,10.17,10.17,0,0,0,0-3.7,8.44,8.44,0,0,0-5.09-6.38c-3-1.44-7.82-2.72-14.63-3.84-3-.54-6-1.23-9-2.06a31.76,31.76,0,0,1-8.35-3.64,23.44,23.44,0,0,1-6.6-6.21A22.43,22.43,0,0,1,11.87,61a25.48,25.48,0,0,1,.52-11.1,23.13,23.13,0,0,1,5-9.15A29.27,29.27,0,0,1,26.54,34a45.23,45.23,0,0,1,12.87-3.9,63.35,63.35,0,0,1,10-.87,42.73,42.73,0,0,1,5.32.32A54.14,54.14,0,0,1,65.83,32l-.75,3.83-2.4,12.34a53.25,53.25,0,0,0-8.54-2c-.65-.1-1.33-.18-2-.23s-1.42-.08-2.17-.08a42.45,42.45,0,0,0-6.64.57q-7,1.13-9.7,3.53a6.57,6.57,0,0,0-2.09,6.39,6.87,6.87,0,0,0,1.75,3.79,11,11,0,0,0,3.63,2.41A27.79,27.79,0,0,0,42,64.1q2.84.63,6.25,1.23,7.09,1.41,12.46,3a31.5,31.5,0,0,1,9.16,4.33A20.65,20.65,0,0,1,76,79.49a26.3,26.3,0,0,1,2.41,6.11,39,39,0,0,1,.89,4.19Q81.2,101.83,73.82,109.83Zm9.66-29.27-6.7-41.93,9.44-1.51,6.7,41.93Zm51-8.14,0-.06q-3-5.44-6-11.48t-6-12.17q-.92,6.72-1.83,13.42T118.47,75l-8.62,1.38q-4.78-9.22-9.28-19.62t-8.3-20.58l10.22-1.63c.79,2.32,1.63,4.71,2.53,7.2s1.81,5,2.75,7.47,1.88,4.91,2.81,7.24,1.85,4.49,2.75,6.45q.61-3.14,1.11-6.63c.33-2.33.65-4.65.94-7s.54-4.56.76-6.7.42-4.06.61-5.75l8-1.28q1.13,2.36,2.5,5.34c.92,2,1.88,4,2.9,6.14s2.05,4.23,3.09,6.33,2,4.07,3,5.86q.3-3.21.54-7c.16-2.5.27-5.09.35-7.75s.14-5.3.19-7.94.1-5.18.13-7.62l9.8-1.57q-.45,10.88-1.48,22.14-.93,9.91-2.31,19c-.14.83-.27,1.66-.4,2.49Zm14.64,17.15A7,7,0,0,1,145,91.43a11.77,11.77,0,0,1-1.76.19,12.46,12.46,0,0,1-1.41,0,8.89,8.89,0,0,1-1.1-.19c-.3-.08-.57-.14-.78-.22l.48-2.77a7.25,7.25,0,0,0,1.72.37,8,8,0,0,0,2.38-.13,4.83,4.83,0,0,0,1.12-.3,2.36,2.36,0,0,0,.66-.44,1,1,0,0,0,.3-.54.29.29,0,0,0,0-.13.68.68,0,0,0,0-.2,1.43,1.43,0,0,0,0-.29,1.28,1.28,0,0,0-.22-.55,1.62,1.62,0,0,0-.66-.53,10.64,10.64,0,0,0-2.47-.62c-.5-.08-1-.2-1.52-.33a5.19,5.19,0,0,1-1.43-.59,4.13,4.13,0,0,1-1.13-1,3.46,3.46,0,0,1-.59-1.39,1.53,1.53,0,0,1-.06-.25,4.22,4.22,0,0,1,.07-1.88A4.06,4.06,0,0,1,139.4,78a4.69,4.69,0,0,1,1.53-1.16,7.47,7.47,0,0,1,2.17-.69,9.36,9.36,0,0,1,2.59-.12,9,9,0,0,1,1.88.38l-.5,2.74a9.72,9.72,0,0,0-1.45-.31,5.83,5.83,0,0,0-1.84.06,3.48,3.48,0,0,0-1.62.62,1.11,1.11,0,0,0-.35,1.09,1,1,0,0,0,.2.49.76.76,0,0,0,.11.14,1.66,1.66,0,0,0,.62.4,4.58,4.58,0,0,0,.86.27l1.06.19a20.93,20.93,0,0,1,2.11.49,5.54,5.54,0,0,1,1.57.71,3.63,3.63,0,0,1,1,1.13,4.77,4.77,0,0,1,.47,1.21c0,.17.08.35.11.53A3.86,3.86,0,0,1,149.08,89.57Zm12.85-1.37-.75-4.36-.31-1.8-5.51.95.3,1.73.78,4.44-3.27.55-.78-4.47-1-5.76-.74-4.28,3.27-.57.74,4.28.23,1.28,5.49-1L160.15,78l-.74-4.29,3.27-.55.74,4.29,1,5.91.75,4.32Zm19.23-7.54a.5.5,0,0,1,0,.12A6.82,6.82,0,0,1,180,83.4,6.26,6.26,0,0,1,178,85.24a8.66,8.66,0,0,1-2.78,1,8.19,8.19,0,0,1-2.88,0,6.63,6.63,0,0,1-4.52-3.14c-.05-.09-.11-.18-.15-.27a9.29,9.29,0,0,1-1-2.92,8.41,8.41,0,0,1,0-3,1.26,1.26,0,0,1,.05-.33,6.92,6.92,0,0,1,1.17-2.66,6.57,6.57,0,0,1,2-1.84,8.31,8.31,0,0,1,5.57-1,6.6,6.6,0,0,1,2.55,1,6.79,6.79,0,0,1,2,2.12c0,.09.12.2.16.29a8.89,8.89,0,0,1,1,2.88A9.48,9.48,0,0,1,181.16,80.66Zm-8.61-14.33-.44-2.78L170,50.41q-5.14-5.76-9.89-11.58t-9.28-12L161.79,25c1.76,2.69,3.6,5.35,5.55,8s4,5.22,6.15,7.81q1.86-4.7,3.47-9.34t2.87-9.31l10.4-1.67q-2.35,7.34-5,14.28t-5.76,14l2.15,13.46.41,2.58ZM185.11,84.2l-.7-4L183.34,74l-.74-4.29,9.82-1.7.46,2.74-6.54,1.14.27,1.54.22,1.31,5.81-1,.47,2.69-5.81,1,.38,2.23.22,1.27,7-1.21.48,2.74Zm20.82-4.45a7,7,0,0,1-4.1,1.86,12,12,0,0,1-1.76.19,12.83,12.83,0,0,1-1.43,0,8.71,8.71,0,0,1-1.09-.19,6.4,6.4,0,0,1-.78-.22l.48-2.77A6.82,6.82,0,0,0,199,79a8.15,8.15,0,0,0,2.4-.13,4.73,4.73,0,0,0,1.11-.3,2.28,2.28,0,0,0,.68-.44,1.15,1.15,0,0,0,.29-.54.88.88,0,0,0,0-.16.81.81,0,0,0,0-.22,1,1,0,0,0,0-.24,1.42,1.42,0,0,0-.88-1.08,10.64,10.64,0,0,0-2.47-.62c-.52-.08-1-.2-1.54-.33a4.68,4.68,0,0,1-.53-.17,4.45,4.45,0,0,1-.88-.42,3.72,3.72,0,0,1-1.74-2.43c0-.07,0-.15,0-.25a4.54,4.54,0,0,1,.07-1.88,4,4,0,0,1,.83-1.56A5,5,0,0,1,197.78,67a7.58,7.58,0,0,1,2.17-.69H200a9.27,9.27,0,0,1,2.53-.11,9,9,0,0,1,1.88.38l-.49,2.74a11.33,11.33,0,0,0-1.46-.31,5.78,5.78,0,0,0-1.83.06,4.42,4.42,0,0,0-1.39.45,1.06,1.06,0,0,0-.23.17,1.09,1.09,0,0,0-.35,1.09,1.12,1.12,0,0,0,.18.45.05.05,0,0,0,0,0,.76.76,0,0,0,.11.14,1.7,1.7,0,0,0,.61.4,4.94,4.94,0,0,0,.87.27l1.06.19a21.17,21.17,0,0,1,2.12.49,5.34,5.34,0,0,1,1.54.71,3.46,3.46,0,0,1,1.06,1.13,5.55,5.55,0,0,1,.58,1.74A3.85,3.85,0,0,1,205.93,79.75Z"/><rect class="cls-2" x="79.83" y="37.61" width="9.56" height="42.46" transform="translate(-8.23 14.1) rotate(-9.09)"/><path class="cls-2" d="M213.94,74.94a12.86,12.86,0,0,0-1.49-4.14,10.62,10.62,0,0,0-1.13-1.59l1.37-7.63-6.1-2.08a14.67,14.67,0,0,0-3.37-.73,12.7,12.7,0,0,0-1.65-.11L215.45,0,73.82,22.93l-4.46-1.59a64.94,64.94,0,0,0-13.43-3,54.16,54.16,0,0,0-6.75-.41,76,76,0,0,0-11.78,1,56.72,56.72,0,0,0-16.08,4.93A40.76,40.76,0,0,0,8.78,33.22,34.46,34.46,0,0,0,1.34,46.75a36.44,36.44,0,0,0-.82,16A33.49,33.49,0,0,0,6.25,77.34,34.85,34.85,0,0,0,16,86.5a43.23,43.23,0,0,0,11.3,4.92c3.11.86,6.25,1.59,9.34,2.17a23,23,0,0,1-2.76-.18,38.61,38.61,0,0,1-7.77-1.71L13.66,87.23,6.54,125.79l8.81,3.32a58.57,58.57,0,0,0,13.72,3.21,77.65,77.65,0,0,0,8.72.45h1.1A85,85,0,0,0,51,131.66c14-2.24,24.15-6.89,30.89-14.19A32.93,32.93,0,0,0,90.67,95l41.88-6.66L131.23,96l5.82,2.16a12.8,12.8,0,0,0,1.38.43l.23.06a16.5,16.5,0,0,0,2.16.36,15.83,15.83,0,0,0,1.77.09h.56a21.46,21.46,0,0,0,2.86-.29,18.32,18.32,0,0,0,3.38-.91l6.11-1h0l2.54-.45,6.78-1.15v0L173,93.84h.45a16.48,16.48,0,0,0,2.82-.25,17.84,17.84,0,0,0,3-.84l20.05-3.45H200a21.38,21.38,0,0,0,2.83-.29,14.12,14.12,0,0,0,8.41-4.25,11.42,11.42,0,0,0,2.7-9.69Zm-6.49,6.39A9.08,9.08,0,0,1,202,84a14.87,14.87,0,0,1-2.1.22h-.44a12.51,12.51,0,0,1-1.28-.06l-.31,0,0,.28-15,2.57-.56-3.24a8.64,8.64,0,0,1-3.46,3.61,11,11,0,0,1-3.53,1.25,10.5,10.5,0,0,1-3.75,0,8.87,8.87,0,0,1-3.46-1.42,8.4,8.4,0,0,1-1.05-.84l.57,3.28L159.75,91l-.67-4.18-.83.14.69,4.19L151,92.45,150.74,91l-.14.16a9.11,9.11,0,0,1-5.46,2.62A14.85,14.85,0,0,1,143,94h-.43a12.17,12.17,0,0,1-1.27-.06,12.86,12.86,0,0,1-1.44-.24l-.15,0c-.34-.09-.64-.18-.89-.27L137,92.71l.9-5.21.3-1.77a7.29,7.29,0,0,1-1.2-1.22,6.11,6.11,0,0,1-1-2.24c0-.14-.07-.31-.1-.5a6.59,6.59,0,0,1,.13-2.83,6.4,6.4,0,0,1,1.32-2.48,3,3,0,0,1,.3-.32l-6.44,1L83.4,84.77c.34,1.33.63,2.73.86,4.19,1.55,9.68-.73,17.91-6.79,24.46-5.72,6.2-15,10.36-27.45,12.35a77.24,77.24,0,0,1-11.2,1H37.76a69.92,69.92,0,0,1-8-.42,50.07,50.07,0,0,1-7.14-1.27,52.39,52.39,0,0,1-5.16-1.59L13.3,122l.81-4.36,3-16.28,1.13-6.12,5.87,2.1a44.07,44.07,0,0,0,9,2,31.22,31.22,0,0,0,4,.24,55.8,55.8,0,0,0,8.59-.76,23.22,23.22,0,0,0,5.38-1.4A7.1,7.1,0,0,0,53.42,96a1.45,1.45,0,0,0,.38-.5,5.12,5.12,0,0,0,0-1.79c-.08-.53-.24-1.51-2.18-2.46-1.71-.83-5.38-2.09-13.17-3.37h-.09c-3.13-.57-6.31-1.3-9.45-2.17a37,37,0,0,1-9.75-4.25,28.78,28.78,0,0,1-8.07-7.58A27.71,27.71,0,0,1,6.4,61.78,30.8,30.8,0,0,1,7.06,48.4a28.62,28.62,0,0,1,6.17-11.22,34.8,34.8,0,0,1,10.73-8,50.62,50.62,0,0,1,14.38-4.38,68.93,68.93,0,0,1,10.84-.93,47.9,47.9,0,0,1,6,.36A59.17,59.17,0,0,1,67.36,27l4.29,1.52L70.78,33l-.37,1.92L200.62,13.8l-11.12,47-1.29,5.43,5.91-1,.21,1.25a7.39,7.39,0,0,1,2.13-1.58A9.77,9.77,0,0,1,199.3,64c.37-.06.71-.11,1-.14a9.81,9.81,0,0,1,2.24,0,10.6,10.6,0,0,1,2.35.49l1.93.66-1.11,6.19a5.31,5.31,0,0,1,.53.32A6,6,0,0,1,208,73.41a7.76,7.76,0,0,1,.86,2.49h0A6.31,6.31,0,0,1,207.45,81.33Z"/><rect class="cls-3" x="79.83" y="37.61" width="9.56" height="42.46" transform="translate(-8.23 14.1) rotate(-9.09)"/><path class="cls-2" d="M148.84,89.57a7,7,0,0,1-4.11,1.86,11.77,11.77,0,0,1-1.76.19,12.46,12.46,0,0,1-1.41,0,8.89,8.89,0,0,1-1.1-.19c-.3-.08-.57-.14-.78-.22l.48-2.77a7.25,7.25,0,0,0,1.72.37,8,8,0,0,0,2.38-.13,4.83,4.83,0,0,0,1.12-.3,2.36,2.36,0,0,0,.66-.44,1,1,0,0,0,.3-.54.29.29,0,0,0,0-.13.68.68,0,0,0,0-.2,1.43,1.43,0,0,0,0-.29,1.28,1.28,0,0,0-.22-.55,1.62,1.62,0,0,0-.66-.53A10.64,10.64,0,0,0,143,85c-.5-.08-1-.2-1.52-.33a5.19,5.19,0,0,1-1.43-.59,4.13,4.13,0,0,1-1.13-1,3.46,3.46,0,0,1-.59-1.39,1.53,1.53,0,0,1-.06-.25,4.22,4.22,0,0,1,.07-1.88,4.06,4.06,0,0,1,.83-1.56,4.69,4.69,0,0,1,1.53-1.16,7.47,7.47,0,0,1,2.17-.69,9.36,9.36,0,0,1,2.59-.12,9,9,0,0,1,1.88.38l-.5,2.74a9.72,9.72,0,0,0-1.45-.31,5.83,5.83,0,0,0-1.84.06,3.48,3.48,0,0,0-1.62.62,1.11,1.11,0,0,0-.35,1.09,1,1,0,0,0,.2.49.76.76,0,0,0,.11.14,1.66,1.66,0,0,0,.62.4,4.58,4.58,0,0,0,.86.27l1.06.19a20.93,20.93,0,0,1,2.11.49,5.54,5.54,0,0,1,1.57.71,3.63,3.63,0,0,1,1,1.13,4.77,4.77,0,0,1,.47,1.21c0,.17.08.35.11.53A3.86,3.86,0,0,1,148.84,89.57Z"/><polygon class="cls-2" points="164.96 87.64 161.69 88.2 160.94 83.84 160.63 82.04 155.12 82.99 155.42 84.72 156.2 89.16 152.93 89.71 152.15 85.24 151.15 79.48 150.41 75.2 153.68 74.63 154.42 78.91 154.65 80.19 160.14 79.23 159.91 77.96 159.17 73.67 162.44 73.12 163.18 77.41 164.21 83.32 164.96 87.64"/><path class="cls-2" d="M180.89,77.39a8.89,8.89,0,0,0-1-2.88c0-.09-.11-.2-.16-.29a6.79,6.79,0,0,0-2-2.12,6.6,6.6,0,0,0-2.55-1,8.31,8.31,0,0,0-5.57,1,6.57,6.57,0,0,0-2,1.84,6.92,6.92,0,0,0-1.17,2.66,1.26,1.26,0,0,0,0,.33,8.41,8.41,0,0,0,0,3,9.29,9.29,0,0,0,1,2.92c0,.09.1.18.15.27a6.63,6.63,0,0,0,4.52,3.14,8.19,8.19,0,0,0,2.88,0,8.66,8.66,0,0,0,2.78-1,6.26,6.26,0,0,0,2-1.84,6.82,6.82,0,0,0,1.11-2.62.5.5,0,0,0,0-.12A9.48,9.48,0,0,0,180.89,77.39ZM177.58,80a4.37,4.37,0,0,1-.34,1.29l-.15.31A3.31,3.31,0,0,1,176,82.73a4,4,0,0,1-1.56.62,4.12,4.12,0,0,1-1.69,0,3.54,3.54,0,0,1-1.38-.76l-.32-.31a4.48,4.48,0,0,1-.69-1,7.35,7.35,0,0,1-.66-3.84,4.27,4.27,0,0,1,.27-1.12,3.78,3.78,0,0,1,.22-.5,3.6,3.6,0,0,1,2.62-1.8,3.92,3.92,0,0,1,1.68.06,3.31,3.31,0,0,1,1.38.74,2.08,2.08,0,0,1,.38.41,4.86,4.86,0,0,1,.64.94,6.41,6.41,0,0,1,.59,1.9A6.69,6.69,0,0,1,177.58,80Z"/><path class="cls-3" d="M177.58,80a4.37,4.37,0,0,1-.34,1.29l-.15.31A3.31,3.31,0,0,1,176,82.73a4,4,0,0,1-1.56.62,4.12,4.12,0,0,1-1.69,0,3.54,3.54,0,0,1-1.38-.76l-.32-.31a4.48,4.48,0,0,1-.69-1,7.35,7.35,0,0,1-.66-3.84,4.27,4.27,0,0,1,.27-1.12,3.78,3.78,0,0,1,.22-.5,3.6,3.6,0,0,1,2.62-1.8,3.92,3.92,0,0,1,1.68.06,3.31,3.31,0,0,1,1.38.74,2.08,2.08,0,0,1,.38.41,4.86,4.86,0,0,1,.64.94,6.41,6.41,0,0,1,.59,1.9A6.69,6.69,0,0,1,177.58,80Z"/><polygon class="cls-2" points="195.17 82.42 184.87 84.2 184.17 80.15 183.1 73.97 182.36 69.68 192.18 67.98 192.64 70.72 186.1 71.86 186.37 73.4 186.59 74.71 192.4 73.7 192.87 76.39 187.06 77.39 187.44 79.62 187.66 80.89 194.69 79.68 195.17 82.42"/><path class="cls-2" d="M205.69,79.75a7,7,0,0,1-4.1,1.86,12,12,0,0,1-1.76.19,12.83,12.83,0,0,1-1.43,0,8.71,8.71,0,0,1-1.09-.19,6.4,6.4,0,0,1-.78-.22l.48-2.77a6.82,6.82,0,0,0,1.7.37,8.15,8.15,0,0,0,2.4-.13,4.73,4.73,0,0,0,1.11-.3,2.28,2.28,0,0,0,.68-.44,1.15,1.15,0,0,0,.29-.54.88.88,0,0,0,0-.16.81.81,0,0,0,0-.22,1,1,0,0,0,0-.24,1.42,1.42,0,0,0-.88-1.08,10.64,10.64,0,0,0-2.47-.62c-.52-.08-1-.2-1.54-.33a4.68,4.68,0,0,1-.53-.17,4.45,4.45,0,0,1-.88-.42,3.72,3.72,0,0,1-1.74-2.43c0-.07,0-.15-.05-.25a4.54,4.54,0,0,1,.07-1.88,4,4,0,0,1,.83-1.56A5,5,0,0,1,197.54,67a7.58,7.58,0,0,1,2.17-.69h0a9.27,9.27,0,0,1,2.53-.11,9,9,0,0,1,1.88.38l-.49,2.74a11.33,11.33,0,0,0-1.46-.31,5.78,5.78,0,0,0-1.83.06,4.42,4.42,0,0,0-1.39.45,1.06,1.06,0,0,0-.23.17,1.09,1.09,0,0,0-.35,1.09,1.12,1.12,0,0,0,.18.45.05.05,0,0,0,0,0,.76.76,0,0,0,.11.14,1.7,1.7,0,0,0,.61.4,4.94,4.94,0,0,0,.87.27l1.06.19a21.17,21.17,0,0,1,2.12.49,5.34,5.34,0,0,1,1.54.71A3.46,3.46,0,0,1,206,74.61a5.55,5.55,0,0,1,.58,1.74A3.85,3.85,0,0,1,205.69,79.75Z"/><path class="cls-2" d="M73.58,109.83q-7.38,8-24.4,10.72a70.63,70.63,0,0,1-10.42,1h-1a63.54,63.54,0,0,1-7.4-.39A46.8,46.8,0,0,1,23.94,120a47.94,47.94,0,0,1-4.63-1.43l3-16.28a48.7,48.7,0,0,0,10.11,2.28,36.29,36.29,0,0,0,4.69.28,60,60,0,0,0,9.42-.82,28,28,0,0,0,6.66-1.77,12.7,12.7,0,0,0,4-2.54A6.38,6.38,0,0,0,59,96.56a10.17,10.17,0,0,0,0-3.7,8.44,8.44,0,0,0-5.09-6.38C51,85,46.11,83.76,39.3,82.64c-3-.54-6-1.23-9-2.06A31.76,31.76,0,0,1,22,76.94a23.44,23.44,0,0,1-6.6-6.21A22.43,22.43,0,0,1,11.63,61a25.48,25.48,0,0,1,.52-11.1,23.13,23.13,0,0,1,5-9.15A29.27,29.27,0,0,1,26.3,34a45.23,45.23,0,0,1,12.87-3.9,63.35,63.35,0,0,1,10-.87,42.73,42.73,0,0,1,5.32.32A54.14,54.14,0,0,1,65.59,32l-.75,3.83-2.4,12.34a53.25,53.25,0,0,0-8.54-2c-.65-.1-1.33-.18-2-.23s-1.42-.08-2.17-.08a42.45,42.45,0,0,0-6.64.57q-7,1.13-9.7,3.53a6.57,6.57,0,0,0-2.09,6.39A6.87,6.87,0,0,0,33,60.08a11,11,0,0,0,3.63,2.41,27.79,27.79,0,0,0,5.1,1.61q2.84.63,6.25,1.23,7.09,1.41,12.46,3a31.5,31.5,0,0,1,9.16,4.33,20.65,20.65,0,0,1,6.12,6.79,26.3,26.3,0,0,1,2.41,6.11A39,39,0,0,1,79,89.79Q81,101.83,73.58,109.83Z"/><path class="cls-2" d="M86,37.12l-9.44,1.51,6.7,41.93,9.44-1.51Z"/><path class="cls-2" d="M147,27.36q-.45,10.88-1.48,22.14-.93,9.91-2.31,19c-.14.83-.27,1.66-.4,2.49l-8.64,1.38,0-.06q-3-5.44-6-11.48t-6-12.17q-.92,6.72-1.83,13.42T118.23,75l-8.62,1.38q-4.78-9.22-9.28-19.62T92,36.15l10.22-1.63c.79,2.32,1.63,4.71,2.53,7.2s1.81,5,2.75,7.47,1.88,4.91,2.81,7.24,1.85,4.49,2.75,6.45q.61-3.14,1.11-6.63c.33-2.33.65-4.65.94-7s.54-4.56.76-6.7.42-4.06.61-5.75l8-1.28q1.13,2.36,2.5,5.34c.92,2,1.88,4,2.9,6.14S132,51.26,133,53.36s2,4.07,3,5.86q.3-3.21.54-7c.16-2.5.27-5.09.35-7.75s.14-5.3.19-7.94.1-5.18.13-7.62Z"/><path class="cls-2" d="M185,34.77q-2.67,6.93-5.76,14l2.15,13.46.41,2.58-9.44,1.51-.44-2.78-2.1-13.14q-5.15-5.76-9.89-11.58t-9.28-12l11-1.75c1.76,2.69,3.6,5.35,5.55,8s4,5.22,6.15,7.81q1.86-4.7,3.47-9.34t2.87-9.31L190,20.49Q187.64,27.83,185,34.77Z"/></g></g></g></svg>